<?xml version="1.0" encoding="UTF-8"?>
<svg width="752pt" height="752pt" version="1.1" viewBox="0 0 752 752" xmlns="http://www.w3.org/2000/svg">
 <g fill="#e46712">
  <path d="m597.99 524h-15.043c-1.082-31.328-9.3008-61.996-24.027-89.672l12.898-7.3984c3.4883-2.0234 6.0156-5.3672 7.0078-9.2773 0.98438-3.8555 0.34766-7.9453-1.7617-11.316-20.531-33.074-48.914-60.566-82.625-80.035-33.711-19.469-71.711-30.312-110.62-31.566-4.0078-0.11328-7.8867 1.4023-10.754 4.1992-2.8711 2.7969-4.4805 6.6367-4.4688 10.645v14.875c-13.156 0.46094-26.238 2.1797-39.07 5.1328v-0.14844c-1.0742-3.8906-3.6641-7.1914-7.1914-9.1602-3.4648-1.9336-7.5625-2.3789-11.359-1.2266-51.148 15.652-94.926 49.25-123.28 94.613-2.1367 3.375-2.7812 7.4883-1.7852 11.355 0.98438 3.9062 3.5078 7.2461 6.9922 9.2578l0.17578 0.10547h0.003906c-14.727 27.652-22.945 58.305-24.035 89.617h-15.043v14.801l193.44-0.003906c2.168 8.5234 8.0312 15.633 15.988 19.383 7.9531 3.75 17.168 3.75 25.121 0s13.816-10.859 15.988-19.383h193.44zm-33.559-109.92-70.527 40.699s-0.089844 0-0.18359-0.15625c-24.535-37.57-65.516-61.191-110.32-63.594l-0.058594-81.5c36.461 1.1641 72.07 11.316 103.66 29.555 31.594 18.238 58.191 44 77.43 74.996zm-195.83-74.828v37c-8.6172 0.41016-17.188 1.5312-25.617 3.3594l-9.6211-35.727c11.578-2.6328 23.375-4.1836 35.238-4.6328zm-53.391-5.918 15.316 57.043 1.8438 7.3984c-9.5352 3.1133-18.703 7.2539-27.34 12.352l-11.648-12.734c-3.3984-3.4727-8.2852-5.0547-13.074-4.2383-4.7891 0.82031-8.8711 3.9375-10.918 8.3438-2.0508 4.4062-1.8086 9.5352 0.64844 13.727l8.918 14.527h-0.003906c-7.9062 7.5078-14.922 15.898-20.91 25.012l-51.324-29.598-6.4766-3.6992v-0.003907c26.422-42.297 67.262-73.598 114.97-88.121zm-131.36 190.67c1.0742-28.719 8.6133-56.828 22.059-82.227l32.078 18.5c-10.254 19.75-16.102 41.492-17.137 63.727zm51.797 0h0.003906c1.0078-19.645 6.1797-38.848 15.168-56.344 3.2891 1.8789 7.1758 2.4141 10.852 1.4922 3.6719-0.92188 6.8477-3.2266 8.8633-6.4336 4.7383-7.2461 10.207-13.984 16.32-20.113l49.977 81.398zm114.45-6.6602-67.492-109.84 86.934 95.035c-8.3086 1.9062-15.395 7.2969-19.441 14.801zm25.898 28.859c-3.9219 0-7.6875-1.5586-10.465-4.3359-2.7734-2.7734-4.332-6.5391-4.332-10.465s1.5586-7.6875 4.332-10.465c2.7773-2.7734 6.543-4.332 10.465-4.332 3.9258 0 7.6914 1.5586 10.465 4.332 2.7773 2.7773 4.3359 6.5391 4.3359 10.465s-1.5586 7.6914-4.3359 10.465c-2.7734 2.7773-6.5391 4.3359-10.465 4.3359zm28.52-22.199c-1.0469-3.957-2.8906-7.6602-5.418-10.879 0 0-2.1328-2.5469-2.5-2.9023l-81.359-88.965c6.9258-3.8438 14.207-7.0039 21.742-9.4414 3.6055-1.1758 6.6328-3.6836 8.4609-7.0078 1.8281-3.3242 2.3203-7.2227 1.3789-10.898 7.1758-1.5156 14.457-2.4727 21.777-2.8555 0.03125 3.8047 1.5195 7.4531 4.1602 10.191 2.6406 2.7422 6.2305 4.3672 10.031 4.5391 40.031 2.2109 76.617 23.348 98.527 56.918 2.7656 4.2695 7.4961 6.8516 12.582 6.8672 2.5508 0 5.0586-0.67188 7.2734-1.9453 8.9648 17.516 14.137 36.727 15.176 56.379zm126.63 0c-1.0586-22.242-6.9062-43.992-17.145-63.766l32.102-18.5-0.003906 0.003906c13.438 25.414 20.973 53.531 22.043 82.262z"/>
  <path d="m198.41 265.01h14.801l-13.324 17.758 11.84 8.8789 22.199-29.598c1.6836-2.2422 1.9531-5.2422 0.69922-7.75s-3.8164-4.0898-6.6172-4.0898h-14.801l13.32-17.758-11.84-8.8789-22.199 29.598c-1.6797 2.2422-1.9531 5.2422-0.69922 7.7461 1.2539 2.5078 3.8164 4.0938 6.6211 4.0938z"/>
  <path d="m200.94 315.53c12.008 2.5352 24.508 1.2422 35.742-3.6992l18.07 6.0234c1.5234 0.49609 3.1172 0.74219 4.7227 0.73828 4.7539-0.007812 9.2148-2.3008 11.988-6.1602 2.7734-3.8633 3.5234-8.8203 2.0195-13.328l-5.918-18.113-0.003906-0.003907c6.4844-15.043 6.4453-32.098-0.10938-47.113-6.5547-15.012-19.035-26.637-34.477-32.109-15.438-5.4766-32.457-4.3047-47 3.2266-14.547 7.5352-25.32 20.758-29.762 36.527-4.4375 15.766-2.1445 32.668 6.3359 46.684s22.387 23.891 38.414 27.277zm-19.117-89.316c9.7969-9.8281 23.633-14.508 37.391-12.641 13.754 1.8711 25.84 10.07 32.664 22.16 6.8203 12.09 7.5898 26.676 2.0742 39.418-1.4883 3.3477-1.6758 7.1289-0.53125 10.609l6.0234 18.078-18.062-6.0156c-3.4805-1.1445-7.2617-0.95703-10.613 0.52344-12.73 5.4453-27.273 4.6367-39.324-2.1836-12.051-6.8203-20.227-18.871-22.113-32.59s2.7344-27.531 12.496-37.352z"/>
  <path d="m492.53 303.85c1.6055 0.003906 3.1953-0.24609 4.7227-0.74219l18.105-5.918c17.07 7.4375 36.637 6.4531 52.875-2.6562s27.273-25.293 29.824-43.738c2.5508-18.441-3.6836-37.016-16.84-50.191-13.156-13.172-31.723-19.426-50.172-16.898-18.445 2.5273-34.645 13.547-43.773 29.773-9.1289 16.227-10.137 35.789-2.7188 52.867l-6.0312 18.078c-1.5078 4.5117-0.75391 9.4688 2.0195 13.328 2.7734 3.8633 7.2344 6.1562 11.988 6.1641zm0-14.801 6.0234-18.07c1.1484-3.4805 0.95703-7.2617-0.53125-10.609-5.3633-12.371-4.8086-26.512 1.5117-38.422 6.3203-11.91 17.715-20.301 30.965-22.797 2.75-0.49219 5.5391-0.74219 8.332-0.73828 14.77-0.011718 28.574 7.3203 36.836 19.562 8.2617 12.238 9.8945 27.789 4.3594 41.48-5.5391 13.691-17.52 23.73-31.969 26.789-9.0039 1.8984-18.379 0.95703-26.824-2.6992-3.3438-1.4766-7.1172-1.668-10.594-0.53516l-18.086 6.0742z"/>
  <path d="m538.79 272.41c4.3125 0.023438 8.5508-1.0938 12.285-3.2461 3.7305-2.1484 6.8281-5.2539 8.9688-8.9922 4.3867-7.3164 4.5469-16.41 0.42188-23.871l-8.1406-18.309c-1.5625-3.5-4.418-6.2578-7.9727-7.6953-3.5547-1.4336-7.5273-1.4336-11.082 0-3.5547 1.4375-6.4141 4.1953-7.9766 7.6953l-7.8281 17.656c-4.3359 7.6055-4.3047 16.941 0.089844 24.516 4.3906 7.5703 12.48 12.234 21.234 12.246zm-8.1406-30.086 8.1406-18.324 8.4883 18.973c1.7891 3.0117 1.7891 6.7578 0 9.7695-1.3594 2.2461-3.5664 3.8555-6.125 4.4609-2.5547 0.60938-5.25 0.16406-7.4766-1.2305-2.2266-1.3945-3.8008-3.625-4.3711-6.1914-0.56641-2.5664-0.082032-5.2539 1.3477-7.457z"/>
 </g>
</svg>
