<?xml version="1.0" encoding="UTF-8"?>
<svg width="752pt" height="752pt" version="1.1" viewBox="0 0 752 752" xmlns="http://www.w3.org/2000/svg">
 <defs>
  <clipPath id="a">
   <path d="m139.21 139.21h473.58v473.58h-473.58z"/>
  </clipPath>
 </defs>
 <path d="m314.89 353.09c-12.633 0-22.914 10.281-22.914 22.914s10.281 22.914 22.914 22.914c12.633 0 22.914-10.281 22.914-22.914s-10.281-22.914-22.914-22.914zm0 30.555c-4.2148 0-7.6367-3.4219-7.6367-7.6367s3.4219-7.6367 7.6367-7.6367c4.2148 0 7.6367 3.4219 7.6367 7.6367s-3.4219 7.6367-7.6367 7.6367z" fill="#e46712"/>
 <g clip-path="url(#a)">
  <path d="m429.47 291.98h30.555v-15.277h99.301c12.633 0 22.914-10.281 22.914-22.914v-7.6367h30.555v-61.109h-30.555v-7.6406c0-12.633-10.281-22.914-22.914-22.914h-99.301v-15.277h-45.832v15.277h-140.65l-30.555 30.555h-35.027c-37.91 0-68.746 30.836-68.746 68.746v252.07c0 37.91 30.836 68.746 68.746 68.746h118.44c11.152 14.375 28.215 22.914 46.586 22.914h71.762c0 8.4258 6.8516 15.277 15.277 15.277h15.277c8.4258 0 15.277-6.8516 15.277-15.277h31.961c3.1641 8.8672 11.566 15.277 21.508 15.277h68.746v-91.66h-68.746c-9.9453 0-18.348 6.4102-21.508 15.277l-31.961-0.003906c0-8.4258-6.8516-15.277-15.277-15.277h-15.277c-8.4258 0-15.277 6.8516-15.277 15.277h-71.762c-18.371 0-35.434 8.5391-46.586 22.914l-118.44 0.003907c-29.477 0-53.469-23.992-53.469-53.469v-252.07c0-29.477 23.992-53.469 53.469-53.469h19.754l-27.395 27.395v83.977c-7.2578 11.688-11.727 25.305-13.895 42.387-9.5859 2.7305-16.656 11.477-16.656 21.926 0 10.52 7.1562 19.309 16.836 21.992 2.2461 16.605 7.043 30.891 14.918 43.227l3.918 6.1328 14.199-8.1211c8.457 12.711 19.316 23.57 32.027 32.027l-8.1211 14.199 6.1328 3.918c12.336 7.875 26.621 12.68 43.227 14.918 2.6836 9.6797 11.473 16.84 21.992 16.84s19.309-7.1562 21.992-16.836c16.605-2.2461 30.891-7.043 43.227-14.918l6.1328-3.918-8.1133-14.199c12.719-8.4648 23.57-19.324 32.027-32.027l14.199 8.1211 3.918-6.1328c7.875-12.336 12.68-26.621 14.918-43.227 9.6719-2.6836 16.828-11.477 16.828-21.996s-7.1562-19.309-16.836-21.992c-2.1172-15.652-6.5977-29.188-13.719-41.035zm106.94 252.07c0-4.2148 3.4219-7.6367 7.6367-7.6367h53.469v61.105h-53.469c-4.2148 0-7.6367-3.4219-7.6367-7.6367zm-15.273 7.6367v30.555h-30.555v-30.555zm-61.109-15.277h15.277l0.015625 61.105-15.293 0.003906zm-87.039 15.277h71.762v30.555h-71.762c-12.895 0-24.984-5.6211-33.258-15.277 8.2734-9.6562 20.363-15.277 33.258-15.277zm42.613-183.32h-47.848c-0.59766-4.1641-1.6562-8.1641-3.1641-11.961l54.422-31.098c4.4609 8.6836 7.3711 18.555 8.9688 29.699-5.7695 2.5273-10.246 7.3867-12.379 13.359zm-100.7 45.832c-21.059 0-38.191-17.133-38.191-38.191s17.133-38.191 38.191-38.191c21.059 0 38.191 17.133 38.191 38.191 0 21.055-17.133 38.191-38.191 38.191zm-100.7-45.832c-2.1328-5.9883-6.6133-10.855-12.414-13.375 1.5664-11.617 4.2461-21.379 8.3867-29.691l55.02 31.125c-1.4961 3.7891-2.5508 7.7852-3.1562 11.93l-47.836 0.003907zm383.32-168.05v30.555h-15.277v-30.555zm-38.191-30.551c4.2148 0 7.6367 3.4219 7.6367 7.6367v76.383c0 4.2148-3.4219 7.6367-7.6367 7.6367l-99.301 0.003906v-91.66zm-129.86-15.277h15.277v122.21h-15.277zm-149.61 15.277h134.33v140.7l-57.203 32.691c-9.7969-12.523-25.004-20.621-42.098-20.621-17.102 0-32.316 8.1055-42.117 20.648l-57.184-32.355v-11.207h30.555v-61.105h-30.555v-4.4766zm-64.27 114.57v-30.555h15.277v30.555zm-22.914 84.023c4.2148 0 7.6367 3.4219 7.6367 7.6367s-3.4219 7.6367-7.6367 7.6367c-4.2148 0-7.6367-3.4219-7.6367-7.6367s3.4219-7.6367 7.6367-7.6367zm9.1289 28.629c5.7812-2.5195 10.25-7.3789 12.383-13.352h47.848c0.59766 4.1641 1.6562 8.1641 3.1641 11.961l-54.422 31.098c-4.4688-8.6875-7.3711-18.555-8.9727-29.707zm31.094 34.664 39.895-22.801c2.6953 3.4453 5.7969 6.5469 9.2422 9.2422l-22.801 39.895c-10.371-7.0508-19.285-15.965-26.336-26.336zm62.391-5.9609c3.7969 1.5039 7.7969 2.5586 11.961 3.1641v47.848c-5.9727 2.1328-10.832 6.5977-13.352 12.383-11.152-1.6055-21.02-4.5078-29.699-8.9688zm19.602 80.16c-4.2148 0-7.6367-3.4219-7.6367-7.6367s3.4219-7.6367 7.6367-7.6367c4.2148 0 7.6367 3.4219 7.6367 7.6367s-3.4219 7.6367-7.6367 7.6367zm20.996-16.766c-2.5195-5.7812-7.3789-10.25-13.359-12.383v-47.848c4.1641-0.59766 8.1641-1.6562 11.961-3.1641l31.098 54.422c-8.6836 4.4648-18.555 7.3672-29.699 8.9727zm34.656-31.098-22.801-39.895c3.4453-2.6953 6.5469-5.7969 9.2422-9.2422l39.895 22.801c-7.0469 10.363-15.961 19.277-26.336 26.336zm48.465-31.293-54.422-31.098c1.5039-3.7969 2.5586-7.7969 3.1641-11.961h47.848c2.1328 5.9727 6.5977 10.832 12.383 13.352-1.6094 11.152-4.5117 21.02-8.9727 29.707zm18.098-43.059c-4.2148 0-7.6367-3.4219-7.6367-7.6367s3.4219-7.6367 7.6367-7.6367 7.6367 3.4219 7.6367 7.6367-3.4219 7.6367-7.6367 7.6367z" fill="#e46712"/>
 </g>
 <path d="m291.98 185.04h106.94v15.277h-106.94z" fill="#e46712"/>
 <path d="m291.98 215.59h106.94v15.277h-106.94z" fill="#e46712"/>
 <path d="m291.98 246.15h106.94v15.277h-106.94z" fill="#e46712"/>
</svg>
