<?xml version="1.0" encoding="UTF-8"?>
<svg width="752pt" height="752pt" version="1.1" viewBox="0 0 752 752" xmlns="http://www.w3.org/2000/svg">
 <defs>
  <clipPath id="a">
   <path d="m139.21 221h473.58v311h-473.58z"/>
  </clipPath>
 </defs>
 <g clip-path="url(#a)">
  <path d="m456.51 264.71v114.61h-165.28v-114.61zm50.672 118.39c0 3.3164-2.8398 6.1562-6.1562 6.1562s-6.1562-2.8398-6.1562-6.1562c0-3.3164 2.8398-6.1562 6.1562-6.1562 3.7891 0 6.1562 2.8398 6.1562 6.1562zm0 0c0 3.3164-2.8398 6.1562-6.1562 6.1562s-6.1562-2.8398-6.1562-6.1562c0-3.3164 2.8398-6.1562 6.1562-6.1562 3.7891 0 6.1562 2.8398 6.1562 6.1562zm-50.672-118.39v114.61h-165.28v-114.61zm0 0v114.61h-165.28v-114.61zm50.672 118.39c0 3.3164-2.8398 6.1562-6.1562 6.1562s-6.1562-2.8398-6.1562-6.1562c0-3.3164 2.8398-6.1562 6.1562-6.1562 3.7891 0 6.1562 2.8398 6.1562 6.1562zm0-23.207c0 3.3164-2.8398 6.1562-6.1562 6.1562s-6.1562-2.8398-6.1562-6.1562c0-3.3164 2.8398-6.1562 6.1562-6.1562 3.7891 0.47266 6.1562 2.8438 6.1562 6.1562zm20.836 12.789c0 3.3164-2.8398 6.1562-6.1562 6.1562-3.3164 0-6.1562-2.8398-6.1562-6.1562s2.8398-6.1562 6.1562-6.1562c3.7891 0 6.1562 2.8398 6.1562 6.1562zm-20.836-12.789c0 3.3164-2.8398 6.1562-6.1562 6.1562s-6.1562-2.8398-6.1562-6.1562c0-3.3164 2.8398-6.1562 6.1562-6.1562 3.7891 0.47266 6.1562 2.8438 6.1562 6.1562zm0 23.207c0 3.3164-2.8398 6.1562-6.1562 6.1562s-6.1562-2.8398-6.1562-6.1562c0-3.3164 2.8398-6.1562 6.1562-6.1562 3.7891 0 6.1562 2.8398 6.1562 6.1562zm20.836-10.418c0 3.3164-2.8398 6.1562-6.1562 6.1562-3.3164 0-6.1562-2.8398-6.1562-6.1562s2.8398-6.1562 6.1562-6.1562c3.7891 0 6.1562 2.8398 6.1562 6.1562zm-71.508-107.98v114.61h-165.28v-114.61zm-191.33-7.5781c0 3.7891-2.8398 6.6289-6.6289 6.6289-3.7891 0-6.6289-2.8398-6.6289-6.6289 0-3.7891 2.8398-6.6289 6.6289-6.6289 3.7891 0 6.6289 2.8398 6.6289 6.6289zm191.33 7.5781v114.61h-165.28v-114.61zm45.461-9.4727c0 3.7891-2.8398 6.6289-6.6289 6.6289s-6.6289-2.8398-6.6289-6.6289c0-3.7891 2.8398-6.6289 6.6289-6.6289s6.6289 2.8398 6.6289 6.6289zm5.2109 127.87c0 3.3164-2.8398 6.1562-6.1562 6.1562s-6.1562-2.8398-6.1562-6.1562c0-3.3164 2.8398-6.1562 6.1562-6.1562 3.7891 0 6.1562 2.8398 6.1562 6.1562zm0-23.207c0 3.3164-2.8398 6.1562-6.1562 6.1562s-6.1562-2.8398-6.1562-6.1562c0-3.3164 2.8398-6.1562 6.1562-6.1562 3.7891 0.47266 6.1562 2.8438 6.1562 6.1562zm20.836 12.789c0 3.3164-2.8398 6.1562-6.1562 6.1562-3.3164 0-6.1562-2.8398-6.1562-6.1562s2.8398-6.1562 6.1562-6.1562c3.7891 0 6.1562 2.8398 6.1562 6.1562zm-26.047-117.45c0 3.7891-2.8398 6.6289-6.6289 6.6289s-6.6289-2.8398-6.6289-6.6289c0-3.7891 2.8398-6.6289 6.6289-6.6289s6.6289 2.8398 6.6289 6.6289zm5.2109 104.66c0 3.3164-2.8398 6.1562-6.1562 6.1562s-6.1562-2.8398-6.1562-6.1562c0-3.3164 2.8398-6.1562 6.1562-6.1562 3.7891 0.47266 6.1562 2.8438 6.1562 6.1562zm0 23.207c0 3.3164-2.8398 6.1562-6.1562 6.1562s-6.1562-2.8398-6.1562-6.1562c0-3.3164 2.8398-6.1562 6.1562-6.1562 3.7891 0 6.1562 2.8398 6.1562 6.1562zm20.836-10.418c0 3.3164-2.8398 6.1562-6.1562 6.1562-3.3164 0-6.1562-2.8398-6.1562-6.1562s2.8398-6.1562 6.1562-6.1562c3.7891 0 6.1562 2.8398 6.1562 6.1562zm-262.84-115.55c0 3.7891-2.8398 6.6289-6.6289 6.6289-3.7891 0-6.6289-2.8398-6.6289-6.6289 0-3.7891 2.8398-6.6289 6.6289-6.6289 3.7891 0 6.6289 2.8398 6.6289 6.6289zm191.33 7.5781v114.61h-165.28v-114.61zm-209.32 106.55c0 4.7344-3.7891 8.5234-8.5234 8.5234-4.7383 0-8.5273-3.7891-8.5273-8.5234s3.7891-8.5234 8.5234-8.5234c4.2656 0 8.5273 3.7891 8.5273 8.5234zm17.996-114.13c0 3.7891-2.8398 6.6289-6.6289 6.6289-3.7891 0-6.6289-2.8398-6.6289-6.6289 0-3.7891 2.8398-6.6289 6.6289-6.6289 3.7891 0 6.6289 2.8398 6.6289 6.6289zm53.988 193.22c0 7.1055-5.6836 12.785-12.785 12.785-7.1055 0-12.785-5.6836-12.785-12.785 0-7.1055 5.6836-12.785 12.785-12.785 7.1016-0.47656 12.785 5.207 12.785 12.785zm137.34-185.64v114.61h-165.28v-114.61zm45.461-9.4727c0 3.7891-2.8398 6.6289-6.6289 6.6289s-6.6289-2.8398-6.6289-6.6289c0-3.7891 2.8398-6.6289 6.6289-6.6289s6.6289 2.8398 6.6289 6.6289zm5.2109 127.87c0 3.3164-2.8398 6.1562-6.1562 6.1562s-6.1562-2.8398-6.1562-6.1562c0-3.3164 2.8398-6.1562 6.1562-6.1562 3.7891 0 6.1562 2.8398 6.1562 6.1562zm0-23.207c0 3.3164-2.8398 6.1562-6.1562 6.1562s-6.1562-2.8398-6.1562-6.1562c0-3.3164 2.8398-6.1562 6.1562-6.1562 3.7891 0.47266 6.1562 2.8438 6.1562 6.1562zm20.836 12.789c0 3.3164-2.8398 6.1562-6.1562 6.1562-3.3164 0-6.1562-2.8398-6.1562-6.1562s2.8398-6.1562 6.1562-6.1562c3.7891 0 6.1562 2.8398 6.1562 6.1562zm-26.047-117.45c0 3.7891-2.8398 6.6289-6.6289 6.6289s-6.6289-2.8398-6.6289-6.6289c0-3.7891 2.8398-6.6289 6.6289-6.6289s6.6289 2.8398 6.6289 6.6289zm5.2109 104.66c0 3.3164-2.8398 6.1562-6.1562 6.1562s-6.1562-2.8398-6.1562-6.1562c0-3.3164 2.8398-6.1562 6.1562-6.1562 3.7891 0.47266 6.1562 2.8438 6.1562 6.1562zm0 23.207c0 3.3164-2.8398 6.1562-6.1562 6.1562s-6.1562-2.8398-6.1562-6.1562c0-3.3164 2.8398-6.1562 6.1562-6.1562 3.7891 0 6.1562 2.8398 6.1562 6.1562zm20.836-10.418c0 3.3164-2.8398 6.1562-6.1562 6.1562-3.3164 0-6.1562-2.8398-6.1562-6.1562s2.8398-6.1562 6.1562-6.1562c3.7891 0 6.1562 2.8398 6.1562 6.1562zm-208.85 77.668c0 7.1055-5.6836 12.785-12.785 12.785-7.1055 0-12.785-5.6836-12.785-12.785 0-7.1055 5.6836-12.785 12.785-12.785 7.1016-0.47656 12.785 5.207 12.785 12.785zm-71.984-79.09c0 4.7344-3.7891 8.5234-8.5234 8.5234-4.7383 0-8.5273-3.7891-8.5273-8.5234s3.7891-8.5234 8.5234-8.5234c4.2656 0 8.5273 3.7891 8.5273 8.5234zm17.996-114.13c0 3.7891-2.8398 6.6289-6.6289 6.6289-3.7891 0-6.6289-2.8398-6.6289-6.6289 0-3.7891 2.8398-6.6289 6.6289-6.6289 3.7891 0 6.6289 2.8398 6.6289 6.6289zm191.33 7.5781v114.61h-165.28v-114.61zm-209.32 106.55c0 4.7344-3.7891 8.5234-8.5234 8.5234-4.7383 0-8.5273-3.7891-8.5273-8.5234s3.7891-8.5234 8.5234-8.5234c4.2656 0 8.5273 3.7891 8.5273 8.5234zm17.996-114.13c0 3.7891-2.8398 6.6289-6.6289 6.6289-3.7891 0-6.6289-2.8398-6.6289-6.6289 0-3.7891 2.8398-6.6289 6.6289-6.6289 3.7891 0 6.6289 2.8398 6.6289 6.6289zm29.836 238.68c0 3.7891-2.8398 6.6289-6.6289 6.6289s-6.6289-2.8398-6.6289-6.6289c0-3.7891 2.8398-6.6289 6.6289-6.6289 3.7852-0.47266 6.6289 2.8398 6.6289 6.6289zm24.152-45.461c0 7.1055-5.6836 12.785-12.785 12.785-7.1055 0-12.785-5.6836-12.785-12.785 0-7.1055 5.6836-12.785 12.785-12.785 7.1016-0.47656 12.785 5.207 12.785 12.785zm77.195-21.785c0 11.367-8.9961 20.363-20.363 20.363-11.367 0-20.363-8.9961-20.363-20.363 0-11.367 8.9961-20.363 20.363-20.363 11.363-0.003906 20.363 8.9961 20.363 20.363zm60.145-163.86v114.61h-165.28v-114.61zm45.461-9.4727c0 3.7891-2.8398 6.6289-6.6289 6.6289s-6.6289-2.8398-6.6289-6.6289c0-3.7891 2.8398-6.6289 6.6289-6.6289s6.6289 2.8398 6.6289 6.6289zm5.2109 127.87c0 3.3164-2.8398 6.1562-6.1562 6.1562s-6.1562-2.8398-6.1562-6.1562c0-3.3164 2.8398-6.1562 6.1562-6.1562 3.7891 0 6.1562 2.8398 6.1562 6.1562zm0-23.207c0 3.3164-2.8398 6.1562-6.1562 6.1562s-6.1562-2.8398-6.1562-6.1562c0-3.3164 2.8398-6.1562 6.1562-6.1562 3.7891 0.47266 6.1562 2.8438 6.1562 6.1562zm20.836 12.789c0 3.3164-2.8398 6.1562-6.1562 6.1562-3.3164 0-6.1562-2.8398-6.1562-6.1562s2.8398-6.1562 6.1562-6.1562c3.7891 0 6.1562 2.8398 6.1562 6.1562zm-26.047-117.45c0 3.7891-2.8398 6.6289-6.6289 6.6289s-6.6289-2.8398-6.6289-6.6289c0-3.7891 2.8398-6.6289 6.6289-6.6289s6.6289 2.8398 6.6289 6.6289zm5.2109 104.66c0 3.3164-2.8398 6.1562-6.1562 6.1562s-6.1562-2.8398-6.1562-6.1562c0-3.3164 2.8398-6.1562 6.1562-6.1562 3.7891 0.47266 6.1562 2.8438 6.1562 6.1562zm0 23.207c0 3.3164-2.8398 6.1562-6.1562 6.1562s-6.1562-2.8398-6.1562-6.1562c0-3.3164 2.8398-6.1562 6.1562-6.1562 3.7891 0 6.1562 2.8398 6.1562 6.1562zm20.836-10.418c0 3.3164-2.8398 6.1562-6.1562 6.1562-3.3164 0-6.1562-2.8398-6.1562-6.1562s2.8398-6.1562 6.1562-6.1562c3.7891 0 6.1562 2.8398 6.1562 6.1562zm-131.65 55.883c0 11.367-8.9961 20.363-20.363 20.363-11.367 0-20.363-8.9961-20.363-20.363 0-11.367 8.9961-20.363 20.363-20.363 11.363-0.003906 20.363 8.9961 20.363 20.363zm-77.195 21.785c0 7.1055-5.6836 12.785-12.785 12.785-7.1055 0-12.785-5.6836-12.785-12.785 0-7.1055 5.6836-12.785 12.785-12.785 7.1016-0.47656 12.785 5.207 12.785 12.785zm-24.152 45.461c0 3.7891-2.8398 6.6289-6.6289 6.6289s-6.6289-2.8398-6.6289-6.6289c0-3.7891 2.8398-6.6289 6.6289-6.6289 3.7852-0.47266 6.6289 2.8398 6.6289 6.6289zm-47.832-124.55c0 4.7344-3.7891 8.5234-8.5234 8.5234-4.7383 0-8.5273-3.7891-8.5273-8.5234s3.7891-8.5234 8.5234-8.5234c4.2656 0 8.5273 3.7891 8.5273 8.5234zm17.996-114.13c0 3.7891-2.8398 6.6289-6.6289 6.6289-3.7891 0-6.6289-2.8398-6.6289-6.6289 0-3.7891 2.8398-6.6289 6.6289-6.6289 3.7891 0 6.6289 2.8398 6.6289 6.6289zm191.33 7.5781v114.61h-165.28v-114.61zm-209.32 106.55c0 4.7344-3.7891 8.5234-8.5234 8.5234-4.7383 0-8.5273-3.7891-8.5273-8.5234s3.7891-8.5234 8.5234-8.5234c4.2656 0 8.5273 3.7891 8.5273 8.5234zm17.996-114.13c0 3.7891-2.8398 6.6289-6.6289 6.6289-3.7891 0-6.6289-2.8398-6.6289-6.6289 0-3.7891 2.8398-6.6289 6.6289-6.6289 3.7891 0 6.6289 2.8398 6.6289 6.6289zm29.836 238.68c0 3.7891-2.8398 6.6289-6.6289 6.6289s-6.6289-2.8398-6.6289-6.6289c0-3.7891 2.8398-6.6289 6.6289-6.6289 3.7852-0.47266 6.6289 2.8398 6.6289 6.6289zm24.152-45.461c0 7.1055-5.6836 12.785-12.785 12.785-7.1055 0-12.785-5.6836-12.785-12.785 0-7.1055 5.6836-12.785 12.785-12.785 7.1016-0.47656 12.785 5.207 12.785 12.785zm77.195-21.785c0 11.367-8.9961 20.363-20.363 20.363-11.367 0-20.363-8.9961-20.363-20.363 0-11.367 8.9961-20.363 20.363-20.363 11.363-0.003906 20.363 8.9961 20.363 20.363zm63.93 21.785c0 7.1055-5.6836 12.785-12.785 12.785-7.1055 0-12.785-5.6836-12.785-12.785 0-7.1055 5.6836-12.785 12.785-12.785 6.6289-0.47656 12.785 5.207 12.785 12.785zm-3.7852-185.64v114.61h-165.28v-114.61zm10.418 231.11c0 3.7891-2.8398 6.6289-6.6289 6.6289-3.7891 0-6.6289-2.8398-6.6289-6.6289 0-3.7891 2.8398-6.6289 6.6289-6.6289 3.7852 0 6.6289 2.8398 6.6289 6.6289zm35.043-240.58c0 3.7891-2.8398 6.6289-6.6289 6.6289s-6.6289-2.8398-6.6289-6.6289c0-3.7891 2.8398-6.6289 6.6289-6.6289s6.6289 2.8398 6.6289 6.6289zm5.2109 127.87c0 3.3164-2.8398 6.1562-6.1562 6.1562s-6.1562-2.8398-6.1562-6.1562c0-3.3164 2.8398-6.1562 6.1562-6.1562 3.7891 0 6.1562 2.8398 6.1562 6.1562zm0-23.207c0 3.3164-2.8398 6.1562-6.1562 6.1562s-6.1562-2.8398-6.1562-6.1562c0-3.3164 2.8398-6.1562 6.1562-6.1562 3.7891 0.47266 6.1562 2.8438 6.1562 6.1562zm20.836 12.789c0 3.3164-2.8398 6.1562-6.1562 6.1562-3.3164 0-6.1562-2.8398-6.1562-6.1562s2.8398-6.1562 6.1562-6.1562c3.7891 0 6.1562 2.8398 6.1562 6.1562zm-26.047-117.45c0 3.7891-2.8398 6.6289-6.6289 6.6289s-6.6289-2.8398-6.6289-6.6289c0-3.7891 2.8398-6.6289 6.6289-6.6289s6.6289 2.8398 6.6289 6.6289zm5.2109 104.66c0 3.3164-2.8398 6.1562-6.1562 6.1562s-6.1562-2.8398-6.1562-6.1562c0-3.3164 2.8398-6.1562 6.1562-6.1562 3.7891 0.47266 6.1562 2.8438 6.1562 6.1562zm0 23.207c0 3.3164-2.8398 6.1562-6.1562 6.1562s-6.1562-2.8398-6.1562-6.1562c0-3.3164 2.8398-6.1562 6.1562-6.1562 3.7891 0 6.1562 2.8398 6.1562 6.1562zm20.836-10.418c0 3.3164-2.8398 6.1562-6.1562 6.1562-3.3164 0-6.1562-2.8398-6.1562-6.1562s2.8398-6.1562 6.1562-6.1562c3.7891 0 6.1562 2.8398 6.1562 6.1562zm-61.09 123.13c0 3.7891-2.8398 6.6289-6.6289 6.6289-3.7891 0-6.6289-2.8398-6.6289-6.6289 0-3.7891 2.8398-6.6289 6.6289-6.6289 3.7852 0 6.6289 2.8398 6.6289 6.6289zm-6.6328-45.461c0 7.1055-5.6836 12.785-12.785 12.785-7.1055 0-12.785-5.6836-12.785-12.785 0-7.1055 5.6836-12.785 12.785-12.785 6.6289-0.47656 12.785 5.207 12.785 12.785zm-63.93-21.785c0 11.367-8.9961 20.363-20.363 20.363-11.367 0-20.363-8.9961-20.363-20.363 0-11.367 8.9961-20.363 20.363-20.363 11.363-0.003906 20.363 8.9961 20.363 20.363zm-77.195 21.785c0 7.1055-5.6836 12.785-12.785 12.785-7.1055 0-12.785-5.6836-12.785-12.785 0-7.1055 5.6836-12.785 12.785-12.785 7.1016-0.47656 12.785 5.207 12.785 12.785zm-24.152 45.461c0 3.7891-2.8398 6.6289-6.6289 6.6289s-6.6289-2.8398-6.6289-6.6289c0-3.7891 2.8398-6.6289 6.6289-6.6289 3.7852-0.47266 6.6289 2.8398 6.6289 6.6289zm-47.832-124.55c0 4.7344-3.7891 8.5234-8.5234 8.5234-4.7383 0-8.5273-3.7891-8.5273-8.5234s3.7891-8.5234 8.5234-8.5234c4.2656 0 8.5273 3.7891 8.5273 8.5234zm17.996-114.13c0 3.7891-2.8398 6.6289-6.6289 6.6289-3.7891 0-6.6289-2.8398-6.6289-6.6289 0-3.7891 2.8398-6.6289 6.6289-6.6289 3.7891 0 6.6289 2.8398 6.6289 6.6289zm191.33 7.5781v114.61h-165.28v-114.61zm71.508 107.98c0 3.3164-2.8398 6.1562-6.1562 6.1562-3.3164 0-6.1562-2.8398-6.1562-6.1562s2.8398-6.1562 6.1562-6.1562c3.7891 0 6.1562 2.8398 6.1562 6.1562zm-20.836-12.789c0 3.3164-2.8398 6.1562-6.1562 6.1562s-6.1562-2.8398-6.1562-6.1562c0-3.3164 2.8398-6.1562 6.1562-6.1562 3.7891 0.47266 6.1562 2.8438 6.1562 6.1562zm0 23.207c0 3.3164-2.8398 6.1562-6.1562 6.1562s-6.1562-2.8398-6.1562-6.1562c0-3.3164 2.8398-6.1562 6.1562-6.1562 3.7891 0 6.1562 2.8398 6.1562 6.1562zm-5.2109-127.87c0 3.7891-2.8398 6.6289-6.6289 6.6289s-6.6289-2.8398-6.6289-6.6289c0-3.7891 2.8398-6.6289 6.6289-6.6289s6.6289 2.8398 6.6289 6.6289zm-35.043 240.58c0 3.7891-2.8398 6.6289-6.6289 6.6289-3.7891 0-6.6289-2.8398-6.6289-6.6289 0-3.7891 2.8398-6.6289 6.6289-6.6289 3.7852 0 6.6289 2.8398 6.6289 6.6289zm-10.418-231.11v114.61h-165.28v-114.61zm3.7852 185.64c0 7.1055-5.6836 12.785-12.785 12.785-7.1055 0-12.785-5.6836-12.785-12.785 0-7.1055 5.6836-12.785 12.785-12.785 6.6289-0.47656 12.785 5.207 12.785 12.785zm-63.93-21.785c0 11.367-8.9961 20.363-20.363 20.363-11.367 0-20.363-8.9961-20.363-20.363 0-11.367 8.9961-20.363 20.363-20.363 11.363-0.003906 20.363 8.9961 20.363 20.363zm-77.195 21.785c0 7.1055-5.6836 12.785-12.785 12.785-7.1055 0-12.785-5.6836-12.785-12.785 0-7.1055 5.6836-12.785 12.785-12.785 7.1016-0.47656 12.785 5.207 12.785 12.785zm-24.152 45.461c0 3.7891-2.8398 6.6289-6.6289 6.6289s-6.6289-2.8398-6.6289-6.6289c0-3.7891 2.8398-6.6289 6.6289-6.6289 3.7852-0.47266 6.6289 2.8398 6.6289 6.6289zm-29.836-238.68c0 3.7891-2.8398 6.6289-6.6289 6.6289-3.7891 0-6.6289-2.8398-6.6289-6.6289 0-3.7891 2.8398-6.6289 6.6289-6.6289 3.7891 0 6.6289 2.8398 6.6289 6.6289zm-17.996 114.13c0 4.7344-3.7891 8.5234-8.5234 8.5234-4.7383 0-8.5273-3.7891-8.5273-8.5234s3.7891-8.5234 8.5234-8.5234c4.2656 0 8.5273 3.7891 8.5273 8.5234zm209.32-106.55v114.61h-165.28v-114.61zm-191.33-7.5781c0 3.7891-2.8398 6.6289-6.6289 6.6289-3.7891 0-6.6289-2.8398-6.6289-6.6289 0-3.7891 2.8398-6.6289 6.6289-6.6289 3.7891 0 6.6289 2.8398 6.6289 6.6289zm-17.996 114.13c0 4.7344-3.7891 8.5234-8.5234 8.5234-4.7383 0-8.5273-3.7891-8.5273-8.5234s3.7891-8.5234 8.5234-8.5234c4.2656 0 8.5273 3.7891 8.5273 8.5234zm47.832 124.55c0 3.7891-2.8398 6.6289-6.6289 6.6289s-6.6289-2.8398-6.6289-6.6289c0-3.7891 2.8398-6.6289 6.6289-6.6289 3.7852-0.47266 6.6289 2.8398 6.6289 6.6289zm24.152-45.461c0 7.1055-5.6836 12.785-12.785 12.785-7.1055 0-12.785-5.6836-12.785-12.785 0-7.1055 5.6836-12.785 12.785-12.785 7.1016-0.47656 12.785 5.207 12.785 12.785zm77.195-21.785c0 11.367-8.9961 20.363-20.363 20.363-11.367 0-20.363-8.9961-20.363-20.363 0-11.367 8.9961-20.363 20.363-20.363 11.363-0.003906 20.363 8.9961 20.363 20.363zm63.93 21.785c0 7.1055-5.6836 12.785-12.785 12.785-7.1055 0-12.785-5.6836-12.785-12.785 0-7.1055 5.6836-12.785 12.785-12.785 6.6289-0.47656 12.785 5.207 12.785 12.785zm67.723-77.668c0 3.3164-2.8398 6.1562-6.1562 6.1562-3.3164 0-6.1562-2.8398-6.1562-6.1562s2.8398-6.1562 6.1562-6.1562c3.7891 0 6.1562 2.8398 6.1562 6.1562zm-20.836 10.418c0 3.3164-2.8398 6.1562-6.1562 6.1562s-6.1562-2.8398-6.1562-6.1562c0-3.3164 2.8398-6.1562 6.1562-6.1562 3.7891 0 6.1562 2.8398 6.1562 6.1562zm0-23.207c0 3.3164-2.8398 6.1562-6.1562 6.1562s-6.1562-2.8398-6.1562-6.1562c0-3.3164 2.8398-6.1562 6.1562-6.1562 3.7891 0.47266 6.1562 2.8438 6.1562 6.1562zm-5.2109-104.66c0 3.7891-2.8398 6.6289-6.6289 6.6289s-6.6289-2.8398-6.6289-6.6289c0-3.7891 2.8398-6.6289 6.6289-6.6289s6.6289 2.8398 6.6289 6.6289zm26.047 117.45c0 3.3164-2.8398 6.1562-6.1562 6.1562-3.3164 0-6.1562-2.8398-6.1562-6.1562s2.8398-6.1562 6.1562-6.1562c3.7891 0 6.1562 2.8398 6.1562 6.1562zm-20.836-12.789c0 3.3164-2.8398 6.1562-6.1562 6.1562s-6.1562-2.8398-6.1562-6.1562c0-3.3164 2.8398-6.1562 6.1562-6.1562 3.7891 0.47266 6.1562 2.8438 6.1562 6.1562zm0 23.207c0 3.3164-2.8398 6.1562-6.1562 6.1562s-6.1562-2.8398-6.1562-6.1562c0-3.3164 2.8398-6.1562 6.1562-6.1562 3.7891 0 6.1562 2.8398 6.1562 6.1562zm-5.2109-127.87c0 3.7891-2.8398 6.6289-6.6289 6.6289s-6.6289-2.8398-6.6289-6.6289c0-3.7891 2.8398-6.6289 6.6289-6.6289s6.6289 2.8398 6.6289 6.6289zm-45.461 9.4727v114.61h-165.28v-114.61zm3.7852 185.64c0 7.1055-5.6836 12.785-12.785 12.785-7.1055 0-12.785-5.6836-12.785-12.785 0-7.1055 5.6836-12.785 12.785-12.785 6.6289-0.47656 12.785 5.207 12.785 12.785zm-63.93-21.785c0 11.367-8.9961 20.363-20.363 20.363-11.367 0-20.363-8.9961-20.363-20.363 0-11.367 8.9961-20.363 20.363-20.363 11.363-0.003906 20.363 8.9961 20.363 20.363zm-77.195 21.785c0 7.1055-5.6836 12.785-12.785 12.785-7.1055 0-12.785-5.6836-12.785-12.785 0-7.1055 5.6836-12.785 12.785-12.785 7.1016-0.47656 12.785 5.207 12.785 12.785zm-24.152 45.461c0 3.7891-2.8398 6.6289-6.6289 6.6289s-6.6289-2.8398-6.6289-6.6289c0-3.7891 2.8398-6.6289 6.6289-6.6289 3.7852-0.47266 6.6289 2.8398 6.6289 6.6289zm-29.836-238.68c0 3.7891-2.8398 6.6289-6.6289 6.6289-3.7891 0-6.6289-2.8398-6.6289-6.6289 0-3.7891 2.8398-6.6289 6.6289-6.6289 3.7891 0 6.6289 2.8398 6.6289 6.6289zm-17.996 114.13c0 4.7344-3.7891 8.5234-8.5234 8.5234-4.7383 0-8.5273-3.7891-8.5273-8.5234s3.7891-8.5234 8.5234-8.5234c4.2656 0 8.5273 3.7891 8.5273 8.5234zm209.32-106.55v114.61h-165.28v-114.61zm-191.33-7.5781c0 3.7891-2.8398 6.6289-6.6289 6.6289-3.7891 0-6.6289-2.8398-6.6289-6.6289 0-3.7891 2.8398-6.6289 6.6289-6.6289 3.7891 0 6.6289 2.8398 6.6289 6.6289zm-17.996 114.13c0 4.7344-3.7891 8.5234-8.5234 8.5234-4.7383 0-8.5273-3.7891-8.5273-8.5234s3.7891-8.5234 8.5234-8.5234c4.2656 0 8.5273 3.7891 8.5273 8.5234zm71.984 79.09c0 7.1055-5.6836 12.785-12.785 12.785-7.1055 0-12.785-5.6836-12.785-12.785 0-7.1055 5.6836-12.785 12.785-12.785 7.1016-0.47656 12.785 5.207 12.785 12.785zm77.195-21.785c0 11.367-8.9961 20.363-20.363 20.363-11.367 0-20.363-8.9961-20.363-20.363 0-11.367 8.9961-20.363 20.363-20.363 11.363-0.003906 20.363 8.9961 20.363 20.363zm131.65-55.883c0 3.3164-2.8398 6.1562-6.1562 6.1562-3.3164 0-6.1562-2.8398-6.1562-6.1562s2.8398-6.1562 6.1562-6.1562c3.7891 0 6.1562 2.8398 6.1562 6.1562zm-20.836 10.418c0 3.3164-2.8398 6.1562-6.1562 6.1562s-6.1562-2.8398-6.1562-6.1562c0-3.3164 2.8398-6.1562 6.1562-6.1562 3.7891 0 6.1562 2.8398 6.1562 6.1562zm0-23.207c0 3.3164-2.8398 6.1562-6.1562 6.1562s-6.1562-2.8398-6.1562-6.1562c0-3.3164 2.8398-6.1562 6.1562-6.1562 3.7891 0.47266 6.1562 2.8438 6.1562 6.1562zm-5.2109-104.66c0 3.7891-2.8398 6.6289-6.6289 6.6289s-6.6289-2.8398-6.6289-6.6289c0-3.7891 2.8398-6.6289 6.6289-6.6289s6.6289 2.8398 6.6289 6.6289zm26.047 117.45c0 3.3164-2.8398 6.1562-6.1562 6.1562-3.3164 0-6.1562-2.8398-6.1562-6.1562s2.8398-6.1562 6.1562-6.1562c3.7891 0 6.1562 2.8398 6.1562 6.1562zm-20.836-12.789c0 3.3164-2.8398 6.1562-6.1562 6.1562s-6.1562-2.8398-6.1562-6.1562c0-3.3164 2.8398-6.1562 6.1562-6.1562 3.7891 0.47266 6.1562 2.8438 6.1562 6.1562zm0 23.207c0 3.3164-2.8398 6.1562-6.1562 6.1562s-6.1562-2.8398-6.1562-6.1562c0-3.3164 2.8398-6.1562 6.1562-6.1562 3.7891 0 6.1562 2.8398 6.1562 6.1562zm-5.2109-127.87c0 3.7891-2.8398 6.6289-6.6289 6.6289s-6.6289-2.8398-6.6289-6.6289c0-3.7891 2.8398-6.6289 6.6289-6.6289s6.6289 2.8398 6.6289 6.6289zm-45.461 9.4727v114.61h-165.28v-114.61zm-60.145 163.86c0 11.367-8.9961 20.363-20.363 20.363-11.367 0-20.363-8.9961-20.363-20.363 0-11.367 8.9961-20.363 20.363-20.363 11.363-0.003906 20.363 8.9961 20.363 20.363zm-77.195 21.785c0 7.1055-5.6836 12.785-12.785 12.785-7.1055 0-12.785-5.6836-12.785-12.785 0-7.1055 5.6836-12.785 12.785-12.785 7.1016-0.47656 12.785 5.207 12.785 12.785zm-53.988-193.22c0 3.7891-2.8398 6.6289-6.6289 6.6289-3.7891 0-6.6289-2.8398-6.6289-6.6289 0-3.7891 2.8398-6.6289 6.6289-6.6289 3.7891 0 6.6289 2.8398 6.6289 6.6289zm-17.996 114.13c0 4.7344-3.7891 8.5234-8.5234 8.5234-4.7383 0-8.5273-3.7891-8.5273-8.5234s3.7891-8.5234 8.5234-8.5234c4.2656 0 8.5273 3.7891 8.5273 8.5234zm209.32-106.55v114.61h-165.28v-114.61zm-191.33-7.5781c0 3.7891-2.8398 6.6289-6.6289 6.6289-3.7891 0-6.6289-2.8398-6.6289-6.6289 0-3.7891 2.8398-6.6289 6.6289-6.6289 3.7891 0 6.6289 2.8398 6.6289 6.6289zm-17.996 114.13c0 4.7344-3.7891 8.5234-8.5234 8.5234-4.7383 0-8.5273-3.7891-8.5273-8.5234s3.7891-8.5234 8.5234-8.5234c4.2656 0 8.5273 3.7891 8.5273 8.5234zm280.83 1.4219c0 3.3164-2.8398 6.1562-6.1562 6.1562-3.3164 0-6.1562-2.8398-6.1562-6.1562s2.8398-6.1562 6.1562-6.1562c3.7891 0 6.1562 2.8398 6.1562 6.1562zm-20.836 10.418c0 3.3164-2.8398 6.1562-6.1562 6.1562s-6.1562-2.8398-6.1562-6.1562c0-3.3164 2.8398-6.1562 6.1562-6.1562 3.7891 0 6.1562 2.8398 6.1562 6.1562zm0-23.207c0 3.3164-2.8398 6.1562-6.1562 6.1562s-6.1562-2.8398-6.1562-6.1562c0-3.3164 2.8398-6.1562 6.1562-6.1562 3.7891 0.47266 6.1562 2.8438 6.1562 6.1562zm-5.2109-104.66c0 3.7891-2.8398 6.6289-6.6289 6.6289s-6.6289-2.8398-6.6289-6.6289c0-3.7891 2.8398-6.6289 6.6289-6.6289s6.6289 2.8398 6.6289 6.6289zm26.047 117.45c0 3.3164-2.8398 6.1562-6.1562 6.1562-3.3164 0-6.1562-2.8398-6.1562-6.1562s2.8398-6.1562 6.1562-6.1562c3.7891 0 6.1562 2.8398 6.1562 6.1562zm-20.836-12.789c0 3.3164-2.8398 6.1562-6.1562 6.1562s-6.1562-2.8398-6.1562-6.1562c0-3.3164 2.8398-6.1562 6.1562-6.1562 3.7891 0.47266 6.1562 2.8438 6.1562 6.1562zm0 23.207c0 3.3164-2.8398 6.1562-6.1562 6.1562s-6.1562-2.8398-6.1562-6.1562c0-3.3164 2.8398-6.1562 6.1562-6.1562 3.7891 0 6.1562 2.8398 6.1562 6.1562zm-5.2109-127.87c0 3.7891-2.8398 6.6289-6.6289 6.6289s-6.6289-2.8398-6.6289-6.6289c0-3.7891 2.8398-6.6289 6.6289-6.6289s6.6289 2.8398 6.6289 6.6289zm-45.461 9.4727v114.61h-165.28v-114.61zm-191.33-7.5781c0 3.7891-2.8398 6.6289-6.6289 6.6289-3.7891 0-6.6289-2.8398-6.6289-6.6289 0-3.7891 2.8398-6.6289 6.6289-6.6289 3.7891 0 6.6289 2.8398 6.6289 6.6289zm-17.996 114.13c0 4.7344-3.7891 8.5234-8.5234 8.5234-4.7383 0-8.5273-3.7891-8.5273-8.5234s3.7891-8.5234 8.5234-8.5234c4.2656 0 8.5273 3.7891 8.5273 8.5234zm209.32-106.55v114.61h-165.28v-114.61zm71.508 107.98c0 3.3164-2.8398 6.1562-6.1562 6.1562-3.3164 0-6.1562-2.8398-6.1562-6.1562s2.8398-6.1562 6.1562-6.1562c3.7891 0 6.1562 2.8398 6.1562 6.1562zm-20.836 10.418c0 3.3164-2.8398 6.1562-6.1562 6.1562s-6.1562-2.8398-6.1562-6.1562c0-3.3164 2.8398-6.1562 6.1562-6.1562 3.7891 0 6.1562 2.8398 6.1562 6.1562zm0-23.207c0 3.3164-2.8398 6.1562-6.1562 6.1562s-6.1562-2.8398-6.1562-6.1562c0-3.3164 2.8398-6.1562 6.1562-6.1562 3.7891 0.47266 6.1562 2.8438 6.1562 6.1562zm-5.2109-104.66c0 3.7891-2.8398 6.6289-6.6289 6.6289s-6.6289-2.8398-6.6289-6.6289c0-3.7891 2.8398-6.6289 6.6289-6.6289s6.6289 2.8398 6.6289 6.6289zm26.047 117.45c0 3.3164-2.8398 6.1562-6.1562 6.1562-3.3164 0-6.1562-2.8398-6.1562-6.1562s2.8398-6.1562 6.1562-6.1562c3.7891 0 6.1562 2.8398 6.1562 6.1562zm-20.836-12.789c0 3.3164-2.8398 6.1562-6.1562 6.1562s-6.1562-2.8398-6.1562-6.1562c0-3.3164 2.8398-6.1562 6.1562-6.1562 3.7891 0.47266 6.1562 2.8438 6.1562 6.1562zm0 23.207c0 3.3164-2.8398 6.1562-6.1562 6.1562s-6.1562-2.8398-6.1562-6.1562c0-3.3164 2.8398-6.1562 6.1562-6.1562 3.7891 0 6.1562 2.8398 6.1562 6.1562zm-5.2109-127.87c0 3.7891-2.8398 6.6289-6.6289 6.6289s-6.6289-2.8398-6.6289-6.6289c0-3.7891 2.8398-6.6289 6.6289-6.6289s6.6289 2.8398 6.6289 6.6289zm-45.461 9.4727v114.61h-165.28v-114.61zm0 0v114.61h-165.28v-114.61zm71.508 107.98c0 3.3164-2.8398 6.1562-6.1562 6.1562-3.3164 0-6.1562-2.8398-6.1562-6.1562s2.8398-6.1562 6.1562-6.1562c3.7891 0 6.1562 2.8398 6.1562 6.1562zm-20.836 10.418c0 3.3164-2.8398 6.1562-6.1562 6.1562s-6.1562-2.8398-6.1562-6.1562c0-3.3164 2.8398-6.1562 6.1562-6.1562 3.7891 0 6.1562 2.8398 6.1562 6.1562zm20.836-10.418c0 3.3164-2.8398 6.1562-6.1562 6.1562-3.3164 0-6.1562-2.8398-6.1562-6.1562s2.8398-6.1562 6.1562-6.1562c3.7891 0 6.1562 2.8398 6.1562 6.1562zm-20.836 10.418c0 3.3164-2.8398 6.1562-6.1562 6.1562s-6.1562-2.8398-6.1562-6.1562c0-3.3164 2.8398-6.1562 6.1562-6.1562 3.7891 0 6.1562 2.8398 6.1562 6.1562zm-50.672-118.39v114.61h-165.28v-114.61zm0 0v114.61h-165.28v-114.61zm0 0v114.61h-165.28v-114.61zm143.49 190.38c-2.8398 8.0508-2.8398 15.629-22.73 47.832-27.941 39.309-71.512 27.941-84.77 23.207-2.3672-0.94531-3.3164-3.3164-2.3672-5.2109l-0.47656 0.47266c-36.938-9.4727-75.301-15.156-113.66-15.156-19.418 0-38.359 0.94531-57.305 3.7891-18.941 2.8398-37.887 6.6289-56.355 11.367l-0.47266-0.94531c0.94531 1.8945 0 4.7344-2.3672 5.2109-13.262 4.7344-57.305 16.102-84.77-23.207-19.891-31.73-19.891-39.781-22.73-47.359-2.8438-8.0508-41.203-100.4 30.781-197.48 0.94531-1.4219 3.3164-1.8945 4.7344-0.47266l-0.94531-0.94922 9.4727-19.891c4.2617-9.4727 13.734-15.629 24.152-15.156 2.8398 0 5.6836 0.47266 8.0508 1.4219l37.887 14.207c3.7891 1.4219 8.0508 2.3672 11.84 2.3672h195.59c4.2617 0 8.0508-0.94531 11.84-2.3672l37.887-14.207c0.47266 0 0.94531-0.47266 1.4219-0.47266 12.312-3.7891 25.574 2.8398 30.781 15.156l8.5234 19.418c1.4219-0.94531 3.7891-0.94531 4.7344 0.47266 72.457 97.559 34.098 189.91 31.254 197.96zm-313.98-69.617h176.17c4.2617 0 7.1055-3.3164 7.1055-7.1055v-118.87c0-4.2617-3.3164-7.1055-7.1055-7.1055l-176.17 0.003907c-4.2617 0-7.1055 3.3164-7.1055 7.1055v118.87c-0.46875 3.7852 2.8438 7.1016 7.1055 7.1016zm-37.887-128.34c0 5.6836 4.7344 10.418 10.418 10.418 5.6836 0 10.418-4.7344 10.418-10.418 0-5.6836-4.7344-10.418-10.418-10.418-5.6797 0-10.418 4.7344-10.418 10.418zm-54.934 56.828c0.94531 4.7344 1.4219 11.84 0.94531 19.891 0 7.1055 5.6836 13.262 12.785 13.262h27.469c5.2109 0 9.9453-3.3164 11.84-8.5234 1.8945-5.2109 4.2617-10.418 6.6289-15.156 5.6836-10.891 8.0508-22.73 8.0508-31.73 0-7.1055-4.2617-13.262-10.418-16.102-17.051-7.1055-43.098-4.7344-43.098-4.7344 1.4219 0.94531 1.8945 3.3164 0.47266 4.7344-4.2578 7.1055-17.516 26.047-14.676 38.359zm44.988 44.043c-7.5781 0-13.262 6.1562-13.262 13.262 0 7.5781 6.1562 13.262 13.262 13.262 7.5781 0 13.262-6.1562 13.262-13.262 0.47266-7.5781-5.6836-13.262-13.262-13.262zm30.785 92.352-7.5781 12.312c-4.7344 7.1055-15.156 6.6289-19.418-0.94531l-10.418-20.363c-3.7891-7.5781 1.8945-16.574 10.418-16.102l8.0508 0.47266c-6.1562-9.4727-9.9453-18.469-12.785-25.102-1.8945-5.2109-6.6289-8.5234-11.84-8.5234h-23.207c-8.9961 0-15.156 8.9961-11.84 17.523 1.4219 4.2617 3.3164 7.1055 3.3164 7.1055s8.5234 25.574 11.84 46.883c1.4219 7.5781 4.7344 14.207 10.891 18.941 6.6289 5.2109 16.102 8.9961 27.469 4.7344 1.8945-0.47266 3.7891 0.47266 4.7344 1.8945 0 0 11.367-6.1562 20.836-10.891 8.5273-4.2656 9.0039-16.105-0.46875-27.941zm29.836 45.461c0-5.6836-4.7344-10.418-10.418-10.418s-10.418 4.7344-10.418 10.418 4.7344 10.418 10.418 10.418c5.6797 0 10.418-4.7344 10.418-10.418zm27.469-45.461c0-10.891-8.9961-19.891-19.891-19.891-10.891 0-19.891 8.9961-19.891 19.891 0 10.891 8.9961 19.891 19.891 19.891 10.891-0.003906 19.891-9 19.891-19.891zm80.98-21.785c0-17.051-14.207-31.258-31.258-31.258s-31.258 14.207-31.258 31.258c0 17.051 14.207 31.258 31.258 31.258 17.051-0.003906 31.258-14.211 31.258-31.258zm39.781 41.672c10.891 0 19.891-8.9961 19.891-19.891 0-10.891-8.9961-19.891-19.891-19.891-10.891 0-19.891 8.9961-19.891 19.891 0 10.895 8.9961 19.891 19.891 19.891zm23.68 25.574c0-5.6836-4.7344-10.418-10.418-10.418-5.6836 0-10.418 4.7344-10.418 10.418s4.7344 10.418 10.418 10.418c5.6797 0 10.418-4.7344 10.418-10.418zm30.309-219.74c-6.6289 2.8398-10.891 8.9961-10.418 16.102 0 8.5234 2.8398 20.836 8.0508 31.73 2.3672 4.7344 4.7344 9.9453 6.6289 15.156 1.8945 5.2109 6.6289 8.5234 11.84 8.5234h27.469c7.1055 0 13.262-6.1562 12.785-13.262-0.47266-8.0508 0-15.156 0.94531-19.891 2.8398-12.785-9.9453-31.258-15.156-38.359-0.94531-1.4219-0.94531-3.7891 0.47266-4.7344 0.47656 0-25.57-1.8945-42.617 4.7344zm21.312 87.141c-5.2109 0-9.4727 4.2617-9.4727 9.4727s4.2617 9.4727 9.4727 9.4727c5.2109 0 9.4727-4.2617 9.4727-9.4727-0.003906-5.2109-4.7383-9.4727-9.4727-9.4727zm-20.84 29.363c5.2109 0 9.4727-4.2617 9.4727-9.4727 0-5.2109-4.2617-9.4727-9.4727-9.4727s-9.4727 4.2617-9.4727 9.4727c0 5.2109 4.2617 9.4727 9.4727 9.4727zm9-32.68c0-5.2109-4.2617-9.4727-9.4727-9.4727-5.2109 0-9.4727 4.2617-9.4727 9.4727 0 5.2109 4.2617 9.4727 9.4727 9.4727 5.207 0 9.4727-4.2617 9.4727-9.4727zm-25.574-104.66c0 5.6836 4.7344 10.418 10.418 10.418s10.418-4.7344 10.418-10.418c0-5.6836-4.7344-10.418-10.418-10.418s-10.418 4.7344-10.418 10.418zm65.352 136.86h-20.363c-5.2109 0-12.312 3.7891-15.156 8.5234-2.8398 6.6289-6.6289 15.629-12.785 25.102l12.785-0.47266c8.5234-0.47266 14.207 8.5234 10.418 16.102l-9.9453 19.418c-3.7891 7.5781-14.68 8.0508-19.418 0.94531l-7.5781-11.84c-1.8945 0-2.8398-0.47266-4.7344-0.47266-10.418 11.84-10.418 24.625-0.94531 28.887 9.4727 4.2617 20.836 10.891 20.836 10.891 0.94531-1.8945 2.8398-2.8398 4.7344-1.8945 11.367 4.2617 20.836 0.47266 27.469-4.7344 5.6836-4.7344 9.4727-11.367 10.891-18.941 3.3164-21.312 11.84-46.883 11.84-46.883s1.4219-2.8398 3.3164-7.1055c4.2656-8.5234-2.3633-17.523-11.363-17.523zm-259.05-127.39v114.61h165.28v-114.61zm0 0v114.61h165.28v-114.61zm15.156 172.38c-7.1055 0-12.785 5.6836-12.785 12.785 0 7.1055 5.6836 12.785 12.785 12.785 7.1055 0 12.785-5.6836 12.785-12.785 0-7.1016-5.6836-12.785-12.785-12.785zm0 0c-7.1055 0-12.785 5.6836-12.785 12.785 0 7.1055 5.6836 12.785 12.785 12.785 7.1055 0 12.785-5.6836 12.785-12.785 0-7.1016-5.6836-12.785-12.785-12.785zm140.65 0c-7.1055 0-12.785 5.6836-12.785 12.785 0 7.1055 5.6836 12.785 12.785 12.785 7.1055 0 12.785-5.6836 12.785-12.785 0.47266-7.1016-5.6836-12.785-12.785-12.785zm0 0c-7.1055 0-12.785 5.6836-12.785 12.785 0 7.1055 5.6836 12.785 12.785 12.785 7.1055 0 12.785-5.6836 12.785-12.785 0.47266-7.1016-5.6836-12.785-12.785-12.785zm54.461-82.879c-3.3164 0-6.1562 2.8398-6.1562 6.1562s2.8398 6.1562 6.1562 6.1562 6.1562-2.8398 6.1562-6.1562c-0.47266-3.7852-2.8398-6.1562-6.1562-6.1562zm0 0c-3.3164 0-6.1562 2.8398-6.1562 6.1562s2.8398 6.1562 6.1562 6.1562 6.1562-2.8398 6.1562-6.1562c-0.47266-3.7852-2.8398-6.1562-6.1562-6.1562zm0 22.734c-3.3164 0-6.1562 2.8398-6.1562 6.1562 0 3.3164 2.8398 6.1562 6.1562 6.1562s6.1562-2.8398 6.1562-6.1562c-0.47266-3.3164-2.8398-6.1562-6.1562-6.1562zm0 0c-3.3164 0-6.1562 2.8398-6.1562 6.1562 0 3.3164 2.8398 6.1562 6.1562 6.1562s6.1562-2.8398 6.1562-6.1562c-0.47266-3.3164-2.8398-6.1562-6.1562-6.1562zm20.84-10.418c-3.3164 0-6.1562 2.8398-6.1562 6.1562s2.8398 6.1562 6.1562 6.1562 6.1562-2.8398 6.1562-6.1562c-0.47656-3.3164-2.8438-6.1562-6.1562-6.1562zm0 0c-3.3164 0-6.1562 2.8398-6.1562 6.1562s2.8398 6.1562 6.1562 6.1562 6.1562-2.8398 6.1562-6.1562c-0.47656-3.3164-2.8438-6.1562-6.1562-6.1562zm-26.996-117.92c-3.7891 0-6.6289 2.8398-6.6289 6.6289 0 3.7891 2.8398 6.6289 6.6289 6.6289s6.6289-2.8398 6.6289-6.6289c0-3.7891-2.8398-6.6289-6.6289-6.6289zm0 0c-3.7891 0-6.6289 2.8398-6.6289 6.6289 0 3.7891 2.8398 6.6289 6.6289 6.6289s6.6289-2.8398 6.6289-6.6289c0-3.7891-2.8398-6.6289-6.6289-6.6289zm-236.79 1.8945c-3.7891 0-6.6289 2.8398-6.6289 6.6289 0 3.7891 2.8398 6.6289 6.6289 6.6289 3.7891 0 6.6289-2.8398 6.6289-6.6289 0-3.7891-2.8398-6.6289-6.6289-6.6289zm0 0c-3.7891 0-6.6289 2.8398-6.6289 6.6289 0 3.7891 2.8398 6.6289 6.6289 6.6289 3.7891 0 6.6289-2.8398 6.6289-6.6289 0-3.7891-2.8398-6.6289-6.6289-6.6289zm-20.367 112.24c-4.7344 0-8.5234 3.7891-8.5234 8.5234s3.7891 8.5234 8.5234 8.5234 8.5234-3.7891 8.5234-8.5234c0.47656-4.7344-3.7852-8.5234-8.5234-8.5234zm0 0c-4.7344 0-8.5234 3.7891-8.5234 8.5234s3.7891 8.5234 8.5234 8.5234 8.5234-3.7891 8.5234-8.5234c0.47656-4.7344-3.7852-8.5234-8.5234-8.5234zm137.81 45.461c-11.367 0-20.363 8.9961-20.363 20.363 0 11.367 8.9961 20.363 20.363 20.363s20.363-8.9961 20.363-20.363c0.003907-11.363-8.9961-20.363-20.363-20.363zm0 0c-11.367 0-20.363 8.9961-20.363 20.363 0 11.367 8.9961 20.363 20.363 20.363s20.363-8.9961 20.363-20.363c0.003907-11.363-8.9961-20.363-20.363-20.363zm84.297 80.512c-3.7891 0-6.6289 2.8398-6.6289 6.6289s2.8398 7.1055 6.6289 7.1055 6.6289-2.8398 6.6289-6.6289c0.003907-3.793-3.3125-7.1055-6.6289-7.1055zm0 0c-3.7891 0-6.6289 2.8398-6.6289 6.6289s2.8398 7.1055 6.6289 7.1055 6.6289-2.8398 6.6289-6.6289c0.003907-3.793-3.3125-7.1055-6.6289-7.1055zm-171.91 0c-3.7891 0-6.6289 2.8398-6.6289 6.6289s2.8398 6.6289 6.6289 6.6289 6.6289-2.8398 6.6289-6.6289-2.8438-6.6289-6.6289-6.6289zm0 0c-3.7891 0-6.6289 2.8398-6.6289 6.6289s2.8398 6.6289 6.6289 6.6289 6.6289-2.8398 6.6289-6.6289-2.8438-6.6289-6.6289-6.6289z" fill="#e46712"/>
 </g>
</svg>
