<?xml version="1.0" encoding="UTF-8"?>
<svg width="752pt" height="752pt" version="1.1" viewBox="0 0 752 752" xmlns="http://www.w3.org/2000/svg">
 <g fill="#e46712">
  <path d="m391.8 208.23c5.4141-10.977 0.88672-24.312-10.09-29.73-10.977-5.4141-24.316-0.88672-29.727 10.09-2.6211 5.3203-3.0195 11.34-1.1133 16.953s5.8828 10.152 11.203 12.773c3.1016 1.5273 6.4414 2.3008 9.8008 2.3008 2.4023 0 4.8125-0.39453 7.1523-1.1914 5.6133-1.8984 10.152-5.875 12.773-11.195zm-13.27-6.5469c-0.875 1.7734-2.3867 3.1016-4.2578 3.7344-1.8711 0.63672-3.8789 0.50391-5.6523-0.37109-1.7734-0.875-3.0977-2.3867-3.7344-4.2578-0.63672-1.8711-0.50391-3.8789 0.37109-5.6523 1.2891-2.6094 3.918-4.125 6.6484-4.125 1.0977 0 2.2109 0.24609 3.2617 0.76172 3.6562 1.8086 5.1641 6.2539 3.3633 9.9102z"/>
  <path d="m178.51 540.33c-2.6211 5.3203-3.0195 11.34-1.1133 16.953s5.8828 10.152 11.203 12.773c3.1016 1.5273 6.4414 2.3008 9.8008 2.3008 2.4023 0 4.8125-0.39453 7.1523-1.1914 5.6172-1.9062 10.152-5.8828 12.773-11.203 5.4141-10.977 0.88672-24.312-10.09-29.73-10.977-5.4062-24.312-0.87891-29.727 10.098zm13.273 6.5469c1.2891-2.6094 3.918-4.125 6.6484-4.125 1.0977 0 2.2109 0.24609 3.2617 0.76172 3.6602 1.8047 5.168 6.25 3.3633 9.9102-0.875 1.7734-2.3867 3.0977-4.2578 3.7344s-3.8789 0.50391-5.6523-0.37109c-1.7734-0.875-3.0977-2.3867-3.7344-4.2578-0.63672-1.875-0.50391-3.8789 0.37109-5.6523z"/>
  <path d="m335.31 356.55-11.195-11.074 2.9141-5.9141 1.0391 1.0273c4.0469 3.9922 9.3906 6.1953 15.051 6.1953 8.2422 0 15.617-4.5859 19.254-11.961 4.0898-8.2891 2.418-18.227-4.1523-24.73l-5.8594-5.7969 11.867 5.8516c2.3594 1.1641 4.8672 1.7148 7.3359 1.7148 6.1445 0 12.062-3.4102 14.961-9.2812l18-36.5c1.9688-3.9883 2.2656-8.5039 0.83594-12.715-1.2305-3.6211-3.6133-6.6367-6.7891-8.6641l13.137-26.648c10.824-21.949 1.7734-48.621-20.18-59.461-21.953-10.824-48.625-1.7695-59.461 20.188l-13.137 26.637c-7.8633-2.8477-16.805 0.61719-20.59 8.2891l-18 36.5c-1.9648 3.9883-2.2617 8.5039-0.83594 12.715 0.4375 1.2812 1.0312 2.4805 1.7383 3.5938-1.0977 1.3047-2.0547 2.7461-2.8359 4.3242-4.082 8.2812-2.418 18.215 4.1523 24.73l11.195 11.074-2.918 5.918-1.0352-1.0234c-4.957-4.9062-11.746-7.0547-18.625-5.9023-6.8789 1.1562-12.594 5.4062-15.68 11.66-4.0898 8.2891-2.418 18.227 4.1523 24.727l11.195 11.07-4.6641 9.4531-1.0312-1.0195c-4.957-4.9062-11.746-7.0547-18.625-5.9023-6.8789 1.1562-12.594 5.4062-15.68 11.66-4.0898 8.2891-2.4219 18.227 4.1523 24.727l11.199 11.078-4.4492 9.0195-1.0352-1.0234c-4.957-4.9062-11.746-7.0586-18.625-5.9023-6.8789 1.1562-12.594 5.4062-15.68 11.66-4.0898 8.2891-2.418 18.227 4.1523 24.727l11.195 11.074-10.516 21.324-13.129-6.4766c-3.582-1.7695-7.6406-2.0312-11.426-0.75-3.7852 1.2852-6.8398 3.9648-8.6094 7.5469l-6.4023 12.988c-1.7695 3.582-2.0312 7.6406-0.75 11.426 0.41406 1.2227 0.99219 2.3594 1.6797 3.4141l-14.008 28.398c-5.2461 10.637-6.0352 22.68-2.2227 33.91 3.8125 11.234 11.773 20.309 22.41 25.551 6.2969 3.1055 12.977 4.5742 19.562 4.5742 16.383 0 32.164-9.0938 39.887-24.754l13.996-28.387c1.2617-0.089844 2.5156-0.33984 3.7461-0.75781 3.7852-1.2852 6.8398-3.9648 8.6094-7.5469l6.4062-12.988c3.6484-7.3984 0.59766-16.383-6.8008-20.031l-13.129-6.4766 3.9648-8.0469 1.0352 1.0234c4.0781 4.0352 9.3984 6.207 14.984 6.207 1.2031 0 2.4219-0.10156 3.6406-0.30469 6.8789-1.1562 12.594-5.4062 15.68-11.66 4.0898-8.2891 2.418-18.227-4.1523-24.727l-11.195-11.074 4.4492-9.0195 1.0312 1.0195c4.0781 4.0352 9.3984 6.207 14.988 6.207 1.2031 0 2.4219-0.10156 3.6406-0.30469 6.8789-1.1562 12.594-5.4062 15.68-11.66 4.0898-8.2891 2.4219-18.227-4.1484-24.727l-11.199-11.078 4.6641-9.4531 1.0352 1.0234c4.0781 4.0352 9.3984 6.207 14.988 6.207 1.2031 0 2.4219-0.10156 3.6406-0.30469 6.8789-1.1562 12.594-5.4062 15.68-11.66 4.0859-8.2891 2.418-18.227-4.1562-24.727zm10.035-171.22c7.2227-14.641 25.008-20.684 39.637-13.465 14.637 7.2266 20.672 25.008 13.453 39.641l-13.09 26.547-53.094-26.188zm-51.73 71.43 18-36.5c0.45312-0.91406 1.5625-1.293 2.4766-0.83984l76.32 37.641c0.56641 0.28125 0.82031 0.73438 0.93359 1.0625 0.11328 0.33203 0.1875 0.84375-0.09375 1.4141l-18 36.5c-0.45312 0.91406-1.5625 1.293-2.4805 0.83984l-76.32-37.641c-0.56641-0.28125-0.82031-0.73438-0.93359-1.0625-0.10547-0.33594-0.17969-0.84766 0.097656-1.4141zm-0.63281 28.301c-2.0391-2.0234-2.5586-5.1055-1.293-7.668 0.42578-0.85938 1.0117-1.5938 1.7188-2.1758l16.996 8.3828 37.41 37.012c2.0352 2.0156 2.5547 5.0938 1.2852 7.668-1.3477 2.7305-3.9727 3.707-5.9766 3.707-1.2305 0-3.0391-0.33203-4.6484-1.9219zm22.961 43.531-2.918 5.9141-11.09-10.969 2.918-5.9141zm-90.98 234.65c-7.2188 14.633-24.996 20.672-39.633 13.453-7.0938-3.4961-12.398-9.5469-14.941-17.035-2.543-7.4883-2.0156-15.516 1.4805-22.605l13.098-26.547 53.09 26.184zm32.68-49.891c0.078125 0.039063 0.11328 0.13672 0.074219 0.21094l-6.4062 12.988c-0.035156 0.066407-0.14453 0.10547-0.21094 0.070313l-66.078-32.59c-0.066406-0.035156-0.10547-0.14453-0.070312-0.21094l6.4062-12.988c0.023437-0.050781 0.09375-0.085937 0.15625-0.085937 0.019531 0 0.039062 0.003906 0.058593 0.011718zm-33.129-32.84 8.332-16.895 11.09 10.969-6.1445 12.473zm51.293-13.895c2.0352 2.0117 2.5508 5.0898 1.2852 7.6562-0.95703 1.9375-2.7266 3.2539-4.8555 3.6133-2.1289 0.35547-4.2344-0.30859-5.7695-1.8281l-45.5-45.008c-2.0352-2.0117-2.5508-5.0898-1.2852-7.6562 0.95703-1.9375 2.7266-3.2539 4.8555-3.6133 0.37891-0.0625 0.75391-0.09375 1.1289-0.09375 1.7305 0 3.3789 0.67188 4.6406 1.9219zm-22.965-43.535 4.4492-9.0195 11.09 10.969-4.4492 9.0195zm47.406-6.0234c2.0352 2.0117 2.5508 5.0898 1.2852 7.6602-0.95703 1.9375-2.7266 3.2539-4.8555 3.6094-2.1328 0.35938-4.2344-0.30859-5.7695-1.8281l-45.5-45.008c-2.0352-2.0117-2.5508-5.0898-1.2852-7.6562 0.95703-1.9375 2.7266-3.2539 4.8555-3.6133 0.37891-0.0625 0.75391-0.09375 1.1289-0.09375 1.7305 0 3.3789 0.67188 4.6406 1.9219zm-22.969-43.535 4.6641-9.4531 11.09 10.969-4.6641 9.4531zm48.91 1.2031c-0.95703 1.9375-2.7266 3.2539-4.8555 3.6133-2.1328 0.35547-4.2344-0.30859-5.7695-1.8281l-45.5-45.008c-2.0352-2.0117-2.5508-5.0898-1.2852-7.6562 0.95703-1.9375 2.7266-3.2539 4.8555-3.6133 0.37891-0.0625 0.75391-0.09375 1.1289-0.09375 1.7305 0 3.3789 0.67188 4.6406 1.9219l45.5 45.008c2.0352 2.0117 2.5508 5.0898 1.2852 7.6562z"/>
  <path d="m595.63 187.59c-3.8125-11.234-11.773-20.309-22.41-25.551-21.957-10.828-48.625-1.7734-59.449 20.18l-13.137 26.648c-7.8633-2.8516-16.809 0.61328-20.594 8.2852l-18.004 36.5c-1.9688 3.9883-2.2617 8.5039-0.83203 12.715 0.4375 1.2891 1.0352 2.4883 1.7461 3.6055-1.0938 1.3047-2.0586 2.7383-2.8359 4.3164-4.0898 8.2891-2.4258 18.223 4.1445 24.723l11.199 11.078-2.9219 5.918-1.0312-1.0234c-4.957-4.9062-11.746-7.0547-18.625-5.9023-6.8789 1.1562-12.594 5.4062-15.68 11.66-4.0898 8.2891-2.4219 18.227 4.1484 24.727l11.199 11.078-4.6641 9.4531-1.0352-1.0234c-4.957-4.9062-11.75-7.0586-18.625-5.9023-6.8789 1.1562-12.594 5.4062-15.68 11.66-4.0898 8.2891-2.418 18.227 4.1523 24.727l11.195 11.074-4.4492 9.0195-1.0312-1.0234c-4.957-4.9062-11.746-7.0547-18.625-5.9023-6.8789 1.1562-12.594 5.4062-15.68 11.66-4.0898 8.2891-2.4219 18.227 4.1484 24.727l11.199 11.078-10.516 21.316-13.129-6.4766c-7.3984-3.6445-16.383-0.59766-20.031 6.8008l-6.4062 12.988c-1.7695 3.582-2.0352 7.6406-0.75 11.426 0.41797 1.2266 0.99219 2.3633 1.6836 3.418l-14.008 28.395c-10.824 21.949-1.7734 48.621 20.18 59.461 6.293 3.1016 12.973 4.5742 19.559 4.5742 16.383 0 32.172-9.0977 39.898-24.762l14.008-28.387c5.1133-0.37891 9.9062-3.375 12.336-8.2969l6.4062-12.988c1.7695-3.582 2.0352-7.6406 0.75-11.426-1.2852-3.7852-3.9648-6.8398-7.5469-8.6094l-13.129-6.4766 3.9688-8.043 1.0312 1.0195c4.0781 4.0352 9.3984 6.207 14.984 6.207 1.2031 0 2.4219-0.10156 3.6406-0.30469 6.8789-1.1562 12.594-5.4062 15.68-11.66 4.0898-8.2891 2.4219-18.227-4.1523-24.727l-11.195-11.074 4.4492-9.0195 1.0352 1.0234c4.0781 4.0352 9.3984 6.207 14.984 6.207 1.2031 0 2.4219-0.10156 3.6406-0.30469 6.8789-1.1562 12.594-5.4062 15.68-11.66 4.0898-8.2891 2.418-18.227-4.1523-24.727l-11.195-11.074 4.6641-9.4531 1.0312 1.0195c4.0781 4.0352 9.3984 6.207 14.984 6.207 1.2031 0 2.4219-0.10156 3.6406-0.30469 6.8789-1.1562 12.594-5.4062 15.68-11.66 4.0898-8.2891 2.4219-18.227-4.1523-24.727l-11.191-11.07 2.9219-5.9219 1.0312 1.0195c4.0391 4 9.3828 6.1992 15.047 6.1992 8.2422 0 15.621-4.582 19.254-11.953 4.0859-8.2852 2.4219-18.219-4.1445-24.73l-5.8633-5.7969 11.867 5.8516c2.3242 1.1484 4.832 1.7266 7.3516 1.7266 1.8008 0 3.6094-0.29688 5.3672-0.89062 4.2109-1.4297 7.6133-4.4141 9.582-8.4023l18.004-36.5c3.7852-7.6719 1.0898-16.875-5.9531-21.379l13.145-26.645c5.2305-10.641 6.0195-22.684 2.207-33.914zm-188.97 379.09c-7.2227 14.641-25.008 20.68-39.637 13.465-14.637-7.2266-20.672-25.008-13.457-39.641l13.094-26.547 53.094 26.188zm32.676-49.883c0.066406 0.035157 0.10547 0.14453 0.070312 0.21094l-6.4062 12.988c-0.039062 0.078125-0.13672 0.10938-0.21484 0.074219l-66.078-32.59c-0.066406-0.035156-0.10547-0.14453-0.070312-0.21484l6.4062-12.988c0.039062-0.078125 0.13281-0.10938 0.21484-0.070312zm-33.129-32.84 8.332-16.891 11.09 10.969-6.1523 12.469zm51.293-13.895c2.0352 2.0117 2.5508 5.0898 1.2852 7.6562-0.95703 1.9375-2.7266 3.2539-4.8555 3.6133-2.1289 0.35547-4.2344-0.30859-5.7695-1.8281l-45.5-45.008c-2.0352-2.0117-2.5508-5.0898-1.2852-7.6602 0.95703-1.9375 2.7266-3.2539 4.8555-3.6094 0.37891-0.0625 0.75391-0.09375 1.1289-0.09375 1.7305 0 3.3789 0.67188 4.6406 1.9219zm-22.969-43.535 4.4492-9.0195 11.09 10.969-4.4492 9.0195zm47.41-6.0195c2.0352 2.0117 2.5508 5.0898 1.2852 7.6562-0.95703 1.9375-2.7266 3.2539-4.8555 3.6133s-4.2344-0.30859-5.7695-1.8281l-45.5-45.008c-2.0352-2.0117-2.5508-5.0898-1.2852-7.6562 0.95703-1.9375 2.7266-3.2539 4.8555-3.6133 0.37891-0.0625 0.75391-0.09375 1.1289-0.09375 1.7305 0 3.3789 0.67188 4.6406 1.9219zm-22.969-43.535 4.6641-9.4531 11.09 10.969-4.6641 9.4531zm47.625-6.457c2.0352 2.0117 2.5508 5.0898 1.2852 7.6562-0.95703 1.9375-2.7266 3.2539-4.8555 3.6133s-4.2344-0.30859-5.7695-1.8281l-45.5-45.008c-2.0352-2.0117-2.5508-5.0898-1.2852-7.6602 0.95703-1.9375 2.7266-3.2539 4.8555-3.6094 0.37891-0.0625 0.75391-0.09375 1.1289-0.09375 1.7305 0 3.3789 0.67188 4.6406 1.9219zm-22.973-43.535 2.9219-5.918 11.094 10.973-2.9219 5.9219zm47.164 4.7461c-1.3438 2.7266-3.9688 3.6953-5.9805 3.6953-1.2305 0-3.0312-0.33203-4.6406-1.9219l-30.566-30.23c-0.027343-0.023438-0.050781-0.050781-0.078124-0.078125l-14.867-14.703c-2.0312-2.0078-2.543-5.0859-1.2773-7.6484 0.42578-0.85938 1.0117-1.5938 1.7148-2.1797l16.98 8.375 0.035156 0.035156c0.074219 0.078125 0.14844 0.15625 0.22656 0.23047l37.168 36.75c2.0391 2.0234 2.5508 5.1055 1.2852 7.6758zm42.16-68.746-18.004 36.5c-0.28125 0.56641-0.73437 0.82422-1.0664 0.93359-0.33203 0.11328-0.84375 0.1875-1.4141-0.09375l-76.32-37.641c-0.56641-0.28125-0.82031-0.73438-0.93359-1.0625-0.11328-0.33203-0.1875-0.84375 0.09375-1.4141l18.004-36.5c0.32031-0.65234 0.98047-1.0312 1.6641-1.0312 0.27344 0 0.55469 0.0625 0.81641 0.19141l76.32 37.641c0.91016 0.44922 1.2891 1.5625 0.83984 2.4766zm7.1875-48.023-13.094 26.547-53.09-26.184 13.09-26.551c7.2188-14.633 24.996-20.676 39.633-13.453 7.0938 3.4961 12.398 9.5469 14.941 17.035 2.543 7.4883 2.0156 15.516-1.4805 22.605z"/>
  <path d="m563.41 181.95c-5.3164-2.6211-11.34-3.0195-16.953-1.1133-5.6172 1.9062-10.152 5.8828-12.773 11.203-5.4141 10.977-0.88672 24.312 10.09 29.73 3.1484 1.5547 6.4883 2.2891 9.7852 2.2891 8.1914 0 16.086-4.5469 19.945-12.375 2.6211-5.3203 3.0195-11.34 1.1133-16.953-1.9102-5.6211-5.8906-10.16-11.207-12.781zm-3.1836 23.184c-1.8047 3.6602-6.25 5.168-9.9102 3.3633-3.6602-1.8047-5.168-6.25-3.3633-9.9102 0.875-1.7734 2.3867-3.0977 4.2578-3.7344 0.78125-0.26562 1.582-0.39453 2.3828-0.39453 1.1211 0 2.2344 0.25781 3.2695 0.76562 1.7734 0.875 3.0977 2.3867 3.7344 4.2578 0.63281 1.8711 0.50391 3.8789-0.37109 5.6523z"/>
  <path d="m360.2 543.77c-5.4141 10.977-0.88672 24.312 10.09 29.73 3.1484 1.5547 6.4883 2.2891 9.7852 2.2891 8.1914 0 16.086-4.5469 19.945-12.375 2.6211-5.3203 3.0195-11.34 1.1133-16.953s-5.8828-10.152-11.203-12.773c-5.3203-2.6211-11.34-3.0195-16.953-1.1133-5.6172 1.8984-10.152 5.8789-12.777 11.195zm13.273 6.5469c0.875-1.7734 2.3867-3.0977 4.2578-3.7344 0.78125-0.26562 1.582-0.39453 2.3828-0.39453 1.1211 0 2.2344 0.25781 3.2695 0.76562 1.7734 0.875 3.0977 2.3867 3.7344 4.2578 0.63672 1.8711 0.50391 3.8789-0.37109 5.6523-1.8047 3.6602-6.25 5.168-9.9102 3.3633-3.6602-1.8047-5.168-6.25-3.3633-9.9102z"/>
 </g>
</svg>
